<svg width="267" height="189" viewBox="0 0 267 189" fill="none" xmlns="http://www.w3.org/2000/svg">
<line x1="15.5" y1="28" x2="15.5" y2="161" stroke="#AE4CD8" stroke-width="29"/>
<line x1="108.036" y1="14.5" x2="1.0358" y2="14.7641" stroke="#AE4CD8" stroke-width="29"/>
<path d="M266 173L1.00001 174.457" stroke="#AE4CD8" stroke-width="29"/>
<line x1="107.983" y1="93.5" x2="28.9787" y2="93.407" stroke="#AE4CD8" stroke-width="29"/>
<mask id="path-5-outside-1_1007_10" maskUnits="userSpaceOnUse" x="43" y="123" width="221" height="32" fill="black">
<rect fill="white" x="43" y="123" width="221" height="32"/>
<path d="M58.925 152.33C57.6183 152.75 55.95 152.96 53.92 152.96C51.05 152.96 48.7867 151.957 47.13 149.95C45.6367 148.153 44.89 145.855 44.89 143.055C44.89 140.185 45.7533 137.817 47.48 135.95C49.23 134.107 51.435 133.185 54.095 133.185C55.8683 133.185 57.4783 133.43 58.925 133.92L58.645 137.315C57.2683 136.755 55.8333 136.475 54.34 136.475C52.52 136.475 51.0967 137.082 50.07 138.295C49.0667 139.485 48.565 141.072 48.565 143.055C48.565 144.922 49.0783 146.497 50.105 147.78C51.1083 149.04 52.4383 149.67 54.095 149.67C55.6117 149.67 57.1283 149.39 58.645 148.83L58.925 152.33ZM78.2931 152.505H74.5481V141.305C74.5481 139.602 74.3498 138.377 73.9531 137.63C73.4165 136.743 72.4831 136.3 71.1531 136.3C69.6831 136.3 68.5515 136.907 67.7581 138.12C67.0815 139.217 66.7431 140.593 66.7431 142.25V152.505H62.9981V124.645H66.7431V135.18C67.2098 134.41 67.8865 133.827 68.7731 133.43C69.6365 133.01 70.5581 132.8 71.5381 132.8C73.9881 132.8 75.7498 133.547 76.8231 135.04C77.8031 136.37 78.2931 138.412 78.2931 141.165V152.505ZM91.9237 136.405C90.337 136.405 89.077 137.035 88.1437 138.295C87.257 139.532 86.8137 141.13 86.8137 143.09C86.8137 145.05 87.257 146.648 88.1437 147.885C89.077 149.145 90.337 149.775 91.9237 149.775C93.5104 149.775 94.7587 149.145 95.6687 147.885C96.5787 146.672 97.0337 145.073 97.0337 143.09C97.0337 141.13 96.5787 139.532 95.6687 138.295C94.7587 137.035 93.5104 136.405 91.9237 136.405ZM91.9237 133.115C94.817 133.115 97.0687 134.153 98.6787 136.23C100.125 138.073 100.849 140.36 100.849 143.09C100.849 145.82 100.125 148.107 98.6787 149.95C97.0687 152.027 94.817 153.065 91.9237 153.065C89.007 153.065 86.7437 152.027 85.1337 149.95C83.7104 148.153 82.9987 145.867 82.9987 143.09C82.9987 140.313 83.7104 138.027 85.1337 136.23C86.7437 134.153 89.007 133.115 91.9237 133.115ZM133.879 151.875C132.572 152.598 130.531 152.96 127.754 152.96C123.764 152.96 120.579 151.747 118.199 149.32C115.842 146.847 114.664 143.592 114.664 139.555C114.664 135.565 115.866 132.333 118.269 129.86C120.672 127.387 123.834 126.15 127.754 126.15C130.601 126.15 132.642 126.465 133.879 127.095L133.599 130.665C132.012 130.035 130.064 129.72 127.754 129.72C124.931 129.72 122.679 130.63 120.999 132.45C119.319 134.27 118.479 136.638 118.479 139.555C118.479 142.588 119.296 144.968 120.929 146.695C122.586 148.492 124.861 149.39 127.754 149.39C130.204 149.39 132.152 149.005 133.599 148.235L133.879 151.875ZM155.984 152.505H152.239V141.305C152.239 139.602 152.04 138.377 151.644 137.63C151.107 136.743 150.174 136.3 148.844 136.3C147.374 136.3 146.242 136.907 145.449 138.12C144.772 139.217 144.434 140.593 144.434 142.25V152.505H140.689V124.645H144.434V135.18C144.9 134.41 145.577 133.827 146.464 133.43C147.327 133.01 148.249 132.8 149.229 132.8C151.679 132.8 153.44 133.547 154.514 135.04C155.494 136.37 155.984 138.412 155.984 141.165V152.505ZM171.959 152.68V150.825C170.816 152.318 169.171 153.065 167.024 153.065C164.691 153.065 162.964 152.412 161.844 151.105C161.051 150.148 160.654 148.982 160.654 147.605C160.654 142.845 164.154 140.465 171.154 140.465H171.679V139.835C171.679 137.548 170.617 136.405 168.494 136.405C166.581 136.405 164.691 136.907 162.824 137.91V134.48C164.597 133.57 166.557 133.115 168.704 133.115C170.944 133.115 172.577 133.64 173.604 134.69C174.701 135.833 175.249 137.607 175.249 140.01V148.165C175.249 150.312 175.319 151.817 175.459 152.68H171.959ZM171.679 143.72H170.944C169.124 143.72 167.724 143.883 166.744 144.21C165.181 144.723 164.399 145.738 164.399 147.255C164.399 148.935 165.367 149.775 167.304 149.775C170.221 149.775 171.679 148.002 171.679 144.455V143.72ZM206.606 152.505H202.966V140.185C202.966 137.712 201.87 136.475 199.676 136.475C198.603 136.475 197.716 136.918 197.016 137.805C196.176 138.832 195.756 140.278 195.756 142.145V152.505H192.081V140.185C192.081 137.712 190.985 136.475 188.791 136.475C187.695 136.475 186.82 136.907 186.166 137.77C185.35 138.797 184.941 140.255 184.941 142.145V152.505H181.231V138.4C181.231 137.327 181.22 136.393 181.196 135.6C181.173 134.807 181.138 134.142 181.091 133.605H184.731V135.32C185.781 133.897 187.426 133.185 189.666 133.185C190.623 133.185 191.58 133.465 192.536 134.025C193.516 134.632 194.205 135.39 194.601 136.3C195.908 134.223 197.856 133.185 200.446 133.185C202.43 133.185 203.97 133.78 205.066 134.97C206.093 136.067 206.606 137.572 206.606 139.485V152.505ZM220.789 136.055C219.319 136.055 218.175 136.778 217.359 138.225C216.682 139.462 216.344 141.002 216.344 142.845C216.344 144.642 216.694 146.17 217.394 147.43C218.187 148.853 219.319 149.565 220.789 149.565C223.799 149.565 225.304 147.348 225.304 142.915C225.304 138.342 223.799 136.055 220.789 136.055ZM216.344 124.645V134.935C217.767 133.442 219.377 132.695 221.174 132.695C223.857 132.695 225.875 133.687 227.229 135.67C228.442 137.397 229.049 139.812 229.049 142.915C229.049 145.925 228.395 148.328 227.089 150.125C225.642 152.015 223.67 152.96 221.174 152.96C219.05 152.96 217.44 152.272 216.344 150.895V152.505H212.809V124.645H216.344ZM248.454 144.42H236.659C236.729 146.1 237.184 147.407 238.024 148.34C238.887 149.343 240.077 149.845 241.594 149.845C243.694 149.845 245.549 149.39 247.159 148.48V152.015C245.292 152.715 243.402 153.065 241.489 153.065C238.479 153.065 236.239 152.108 234.769 150.195C233.486 148.492 232.844 146.112 232.844 143.055C232.844 140.115 233.556 137.723 234.979 135.88C236.402 134.037 238.316 133.115 240.719 133.115C243.402 133.115 245.409 134.072 246.739 135.985C247.882 137.618 248.454 139.777 248.454 142.46V144.42ZM244.639 141.095C244.639 139.788 244.301 138.692 243.624 137.805C242.924 136.872 242.002 136.405 240.859 136.405C239.692 136.405 238.701 136.883 237.884 137.84C237.067 138.797 236.659 139.882 236.659 141.095H244.639ZM262.101 137C261.798 136.953 261.518 136.918 261.261 136.895C261.005 136.848 260.748 136.825 260.491 136.825C259.138 136.825 258.135 137.49 257.481 138.82C256.875 139.987 256.571 141.433 256.571 143.16V152.645H252.826V138.225C252.826 137.338 252.803 136.51 252.756 135.74C252.733 134.947 252.698 134.212 252.651 133.535H256.431V135.88C257.505 134.037 258.87 133.115 260.526 133.115C261.04 133.115 261.565 133.185 262.101 133.325V137Z"/>
</mask>
<path d="M58.925 152.33C57.6183 152.75 55.95 152.96 53.92 152.96C51.05 152.96 48.7867 151.957 47.13 149.95C45.6367 148.153 44.89 145.855 44.89 143.055C44.89 140.185 45.7533 137.817 47.48 135.95C49.23 134.107 51.435 133.185 54.095 133.185C55.8683 133.185 57.4783 133.43 58.925 133.92L58.645 137.315C57.2683 136.755 55.8333 136.475 54.34 136.475C52.52 136.475 51.0967 137.082 50.07 138.295C49.0667 139.485 48.565 141.072 48.565 143.055C48.565 144.922 49.0783 146.497 50.105 147.78C51.1083 149.04 52.4383 149.67 54.095 149.67C55.6117 149.67 57.1283 149.39 58.645 148.83L58.925 152.33ZM78.2931 152.505H74.5481V141.305C74.5481 139.602 74.3498 138.377 73.9531 137.63C73.4165 136.743 72.4831 136.3 71.1531 136.3C69.6831 136.3 68.5515 136.907 67.7581 138.12C67.0815 139.217 66.7431 140.593 66.7431 142.25V152.505H62.9981V124.645H66.7431V135.18C67.2098 134.41 67.8865 133.827 68.7731 133.43C69.6365 133.01 70.5581 132.8 71.5381 132.8C73.9881 132.8 75.7498 133.547 76.8231 135.04C77.8031 136.37 78.2931 138.412 78.2931 141.165V152.505ZM91.9237 136.405C90.337 136.405 89.077 137.035 88.1437 138.295C87.257 139.532 86.8137 141.13 86.8137 143.09C86.8137 145.05 87.257 146.648 88.1437 147.885C89.077 149.145 90.337 149.775 91.9237 149.775C93.5104 149.775 94.7587 149.145 95.6687 147.885C96.5787 146.672 97.0337 145.073 97.0337 143.09C97.0337 141.13 96.5787 139.532 95.6687 138.295C94.7587 137.035 93.5104 136.405 91.9237 136.405ZM91.9237 133.115C94.817 133.115 97.0687 134.153 98.6787 136.23C100.125 138.073 100.849 140.36 100.849 143.09C100.849 145.82 100.125 148.107 98.6787 149.95C97.0687 152.027 94.817 153.065 91.9237 153.065C89.007 153.065 86.7437 152.027 85.1337 149.95C83.7104 148.153 82.9987 145.867 82.9987 143.09C82.9987 140.313 83.7104 138.027 85.1337 136.23C86.7437 134.153 89.007 133.115 91.9237 133.115ZM133.879 151.875C132.572 152.598 130.531 152.96 127.754 152.96C123.764 152.96 120.579 151.747 118.199 149.32C115.842 146.847 114.664 143.592 114.664 139.555C114.664 135.565 115.866 132.333 118.269 129.86C120.672 127.387 123.834 126.15 127.754 126.15C130.601 126.15 132.642 126.465 133.879 127.095L133.599 130.665C132.012 130.035 130.064 129.72 127.754 129.72C124.931 129.72 122.679 130.63 120.999 132.45C119.319 134.27 118.479 136.638 118.479 139.555C118.479 142.588 119.296 144.968 120.929 146.695C122.586 148.492 124.861 149.39 127.754 149.39C130.204 149.39 132.152 149.005 133.599 148.235L133.879 151.875ZM155.984 152.505H152.239V141.305C152.239 139.602 152.04 138.377 151.644 137.63C151.107 136.743 150.174 136.3 148.844 136.3C147.374 136.3 146.242 136.907 145.449 138.12C144.772 139.217 144.434 140.593 144.434 142.25V152.505H140.689V124.645H144.434V135.18C144.9 134.41 145.577 133.827 146.464 133.43C147.327 133.01 148.249 132.8 149.229 132.8C151.679 132.8 153.44 133.547 154.514 135.04C155.494 136.37 155.984 138.412 155.984 141.165V152.505ZM171.959 152.68V150.825C170.816 152.318 169.171 153.065 167.024 153.065C164.691 153.065 162.964 152.412 161.844 151.105C161.051 150.148 160.654 148.982 160.654 147.605C160.654 142.845 164.154 140.465 171.154 140.465H171.679V139.835C171.679 137.548 170.617 136.405 168.494 136.405C166.581 136.405 164.691 136.907 162.824 137.91V134.48C164.597 133.57 166.557 133.115 168.704 133.115C170.944 133.115 172.577 133.64 173.604 134.69C174.701 135.833 175.249 137.607 175.249 140.01V148.165C175.249 150.312 175.319 151.817 175.459 152.68H171.959ZM171.679 143.72H170.944C169.124 143.72 167.724 143.883 166.744 144.21C165.181 144.723 164.399 145.738 164.399 147.255C164.399 148.935 165.367 149.775 167.304 149.775C170.221 149.775 171.679 148.002 171.679 144.455V143.72ZM206.606 152.505H202.966V140.185C202.966 137.712 201.87 136.475 199.676 136.475C198.603 136.475 197.716 136.918 197.016 137.805C196.176 138.832 195.756 140.278 195.756 142.145V152.505H192.081V140.185C192.081 137.712 190.985 136.475 188.791 136.475C187.695 136.475 186.82 136.907 186.166 137.77C185.35 138.797 184.941 140.255 184.941 142.145V152.505H181.231V138.4C181.231 137.327 181.22 136.393 181.196 135.6C181.173 134.807 181.138 134.142 181.091 133.605H184.731V135.32C185.781 133.897 187.426 133.185 189.666 133.185C190.623 133.185 191.58 133.465 192.536 134.025C193.516 134.632 194.205 135.39 194.601 136.3C195.908 134.223 197.856 133.185 200.446 133.185C202.43 133.185 203.97 133.78 205.066 134.97C206.093 136.067 206.606 137.572 206.606 139.485V152.505ZM220.789 136.055C219.319 136.055 218.175 136.778 217.359 138.225C216.682 139.462 216.344 141.002 216.344 142.845C216.344 144.642 216.694 146.17 217.394 147.43C218.187 148.853 219.319 149.565 220.789 149.565C223.799 149.565 225.304 147.348 225.304 142.915C225.304 138.342 223.799 136.055 220.789 136.055ZM216.344 124.645V134.935C217.767 133.442 219.377 132.695 221.174 132.695C223.857 132.695 225.875 133.687 227.229 135.67C228.442 137.397 229.049 139.812 229.049 142.915C229.049 145.925 228.395 148.328 227.089 150.125C225.642 152.015 223.67 152.96 221.174 152.96C219.05 152.96 217.44 152.272 216.344 150.895V152.505H212.809V124.645H216.344ZM248.454 144.42H236.659C236.729 146.1 237.184 147.407 238.024 148.34C238.887 149.343 240.077 149.845 241.594 149.845C243.694 149.845 245.549 149.39 247.159 148.48V152.015C245.292 152.715 243.402 153.065 241.489 153.065C238.479 153.065 236.239 152.108 234.769 150.195C233.486 148.492 232.844 146.112 232.844 143.055C232.844 140.115 233.556 137.723 234.979 135.88C236.402 134.037 238.316 133.115 240.719 133.115C243.402 133.115 245.409 134.072 246.739 135.985C247.882 137.618 248.454 139.777 248.454 142.46V144.42ZM244.639 141.095C244.639 139.788 244.301 138.692 243.624 137.805C242.924 136.872 242.002 136.405 240.859 136.405C239.692 136.405 238.701 136.883 237.884 137.84C237.067 138.797 236.659 139.882 236.659 141.095H244.639ZM262.101 137C261.798 136.953 261.518 136.918 261.261 136.895C261.005 136.848 260.748 136.825 260.491 136.825C259.138 136.825 258.135 137.49 257.481 138.82C256.875 139.987 256.571 141.433 256.571 143.16V152.645H252.826V138.225C252.826 137.338 252.803 136.51 252.756 135.74C252.733 134.947 252.698 134.212 252.651 133.535H256.431V135.88C257.505 134.037 258.87 133.115 260.526 133.115C261.04 133.115 261.565 133.185 262.101 133.325V137Z" fill="#AE4CD8"/>
<path d="M58.925 152.33L59.231 153.282L59.985 153.04L59.9218 152.25L58.925 152.33ZM47.13 149.95L47.9012 149.313L47.899 149.311L47.13 149.95ZM47.48 135.95L46.7547 135.261L46.7459 135.271L47.48 135.95ZM58.925 133.92L59.9216 134.002L59.9858 133.224L59.2458 132.973L58.925 133.92ZM58.645 137.315L58.2682 138.241L59.5297 138.754L59.6416 137.397L58.645 137.315ZM50.07 138.295L49.3066 137.649L49.3055 137.65L50.07 138.295ZM50.105 147.78L50.8873 147.157L50.8859 147.155L50.105 147.78ZM58.645 148.83L59.6418 148.75L59.5366 147.435L58.2986 147.892L58.645 148.83ZM58.619 151.378C57.4464 151.755 55.8909 151.96 53.92 151.96V153.96C56.0091 153.96 57.7903 153.745 59.231 153.282L58.619 151.378ZM53.92 151.96C51.3136 151.96 49.3467 151.064 47.9012 149.313L46.3588 150.587C48.2266 152.849 50.7864 153.96 53.92 153.96V151.96ZM47.899 149.311C46.5832 147.728 45.89 145.67 45.89 143.055H43.89C43.89 146.04 44.6902 148.579 46.361 150.589L47.899 149.311ZM45.89 143.055C45.89 140.402 46.6807 138.287 48.2141 136.629L46.7459 135.271C44.826 137.347 43.89 139.968 43.89 143.055H45.89ZM48.2052 136.639C49.7568 135.004 51.6949 134.185 54.095 134.185V132.185C51.1751 132.185 48.7032 133.209 46.7548 135.261L48.2052 136.639ZM54.095 134.185C55.7764 134.185 57.276 134.417 58.6042 134.867L59.2458 132.973C57.6807 132.443 55.9602 132.185 54.095 132.185V134.185ZM57.9284 133.838L57.6484 137.233L59.6416 137.397L59.9216 134.002L57.9284 133.838ZM59.0218 136.389C57.5249 135.78 55.9619 135.475 54.34 135.475V137.475C55.7048 137.475 57.0118 137.73 58.2682 138.241L59.0218 136.389ZM54.34 135.475C52.2735 135.475 50.552 136.177 49.3066 137.649L50.8334 138.941C51.6413 137.986 52.7665 137.475 54.34 137.475V135.475ZM49.3055 137.65C48.1122 139.066 47.565 140.902 47.565 143.055H49.565C49.565 141.241 50.0211 139.904 50.8345 138.94L49.3055 137.65ZM47.565 143.055C47.565 145.116 48.1366 146.92 49.3241 148.405L50.8859 147.155C50.0201 146.073 49.565 144.727 49.565 143.055H47.565ZM49.3227 148.403C50.522 149.909 52.1439 150.67 54.095 150.67V148.67C52.7328 148.67 51.6947 148.171 50.8873 147.157L49.3227 148.403ZM54.095 150.67C55.7375 150.67 57.3712 150.366 58.9914 149.768L58.2986 147.892C56.8855 148.414 55.4858 148.67 54.095 148.67V150.67ZM57.6482 148.91L57.9282 152.41L59.9218 152.25L59.6418 148.75L57.6482 148.91ZM78.2931 152.505V153.505H79.2931V152.505H78.2931ZM74.5481 152.505H73.5481V153.505H74.5481V152.505ZM73.9531 137.63L74.8362 137.161L74.8231 137.136L74.8086 137.112L73.9531 137.63ZM67.7581 138.12L66.9212 137.573L66.914 137.584L66.9071 137.595L67.7581 138.12ZM66.7431 152.505V153.505H67.7431V152.505H66.7431ZM62.9981 152.505H61.9981V153.505H62.9981V152.505ZM62.9981 124.645V123.645H61.9981V124.645H62.9981ZM66.7431 124.645H67.7431V123.645H66.7431V124.645ZM66.7431 135.18H65.7431V138.759L67.5983 135.698L66.7431 135.18ZM68.7731 133.43L69.1815 134.343L69.1962 134.336L69.2106 134.329L68.7731 133.43ZM76.8231 135.04L76.0111 135.624L76.0181 135.633L76.8231 135.04ZM78.2931 151.505H74.5481V153.505H78.2931V151.505ZM75.5481 152.505V141.305H73.5481V152.505H75.5481ZM75.5481 141.305C75.5481 139.572 75.3545 138.136 74.8362 137.161L73.07 138.099C73.3451 138.617 73.5481 139.631 73.5481 141.305H75.5481ZM74.8086 137.112C74.0389 135.841 72.7196 135.3 71.1531 135.3V137.3C72.2466 137.3 72.794 137.646 73.0976 138.148L74.8086 137.112ZM71.1531 135.3C69.3513 135.3 67.9023 136.072 66.9212 137.573L68.5951 138.667C69.2006 137.741 70.0149 137.3 71.1531 137.3V135.3ZM66.9071 137.595C66.1089 138.889 65.7431 140.46 65.7431 142.25H67.7431C67.7431 140.727 68.0541 139.545 68.6092 138.645L66.9071 137.595ZM65.7431 142.25V152.505H67.7431V142.25H65.7431ZM66.7431 151.505H62.9981V153.505H66.7431V151.505ZM63.9981 152.505V124.645H61.9981V152.505H63.9981ZM62.9981 125.645H66.7431V123.645H62.9981V125.645ZM65.7431 124.645V135.18H67.7431V124.645H65.7431ZM67.5983 135.698C67.9512 135.116 68.465 134.663 69.1815 134.343L68.3648 132.517C67.3079 132.99 66.4684 133.704 65.8879 134.662L67.5983 135.698ZM69.2106 134.329C69.9347 133.977 70.7064 133.8 71.5381 133.8V131.8C70.4098 131.8 69.3382 132.043 68.3357 132.531L69.2106 134.329ZM71.5381 133.8C73.7831 133.8 75.1848 134.474 76.0111 135.624L77.6351 134.456C76.3148 132.619 74.1931 131.8 71.5381 131.8V133.8ZM76.0181 135.633C76.8118 136.71 77.2931 138.496 77.2931 141.165H79.2931C79.2931 138.327 78.7945 136.03 77.6282 134.447L76.0181 135.633ZM77.2931 141.165V152.505H79.2931V141.165H77.2931ZM88.1437 138.295L87.3402 137.7L87.3355 137.706L87.331 137.712L88.1437 138.295ZM88.1437 147.885L87.331 148.468L87.3355 148.474L87.3402 148.48L88.1437 147.885ZM95.6687 147.885L94.8687 147.285L94.8633 147.292L94.858 147.3L95.6687 147.885ZM95.6687 138.295L94.858 138.881L94.8633 138.888L95.6687 138.295ZM98.6787 136.23L97.8884 136.843L97.892 136.847L98.6787 136.23ZM98.6787 149.95L97.892 149.333L97.8884 149.337L98.6787 149.95ZM85.1337 149.95L85.9241 149.337L85.9176 149.329L85.1337 149.95ZM85.1337 136.23L85.9176 136.851L85.924 136.843L85.1337 136.23ZM91.9237 135.405C90.0246 135.405 88.4647 136.182 87.3402 137.7L88.9473 138.89C89.6894 137.888 90.6494 137.405 91.9237 137.405V135.405ZM87.331 137.712C86.2916 139.162 85.8137 140.981 85.8137 143.09H87.8137C87.8137 141.279 88.2225 139.901 88.9564 138.878L87.331 137.712ZM85.8137 143.09C85.8137 145.199 86.2916 147.018 87.331 148.468L88.9564 147.302C88.2225 146.279 87.8137 144.901 87.8137 143.09H85.8137ZM87.3402 148.48C88.4647 149.998 90.0246 150.775 91.9237 150.775V148.775C90.6494 148.775 89.6894 148.292 88.9473 147.29L87.3402 148.48ZM91.9237 150.775C93.8235 150.775 95.3768 149.997 96.4794 148.47L94.858 147.3C94.1406 148.293 93.1972 148.775 91.9237 148.775V150.775ZM96.4687 148.485C97.5435 147.052 98.0337 145.223 98.0337 143.09H96.0337C96.0337 144.924 95.6139 146.291 94.8687 147.285L96.4687 148.485ZM98.0337 143.09C98.0337 140.976 97.5417 139.153 96.4741 137.702L94.8633 138.888C95.6158 139.91 96.0337 141.284 96.0337 143.09H98.0337ZM96.4794 137.71C95.3768 136.183 93.8235 135.405 91.9237 135.405V137.405C93.1972 137.405 94.1406 137.887 94.858 138.88L96.4794 137.71ZM91.9237 134.115C94.5438 134.115 96.4887 135.037 97.8884 136.843L99.469 135.617C97.6487 133.269 95.0903 132.115 91.9237 132.115V134.115ZM97.892 136.847C99.1784 138.486 99.8487 140.545 99.8487 143.09H101.849C101.849 140.175 101.072 137.66 99.4654 135.613L97.892 136.847ZM99.8487 143.09C99.8487 145.635 99.1784 147.694 97.892 149.333L99.4654 150.567C101.072 148.52 101.849 146.005 101.849 143.09H99.8487ZM97.8884 149.337C96.4887 151.143 94.5438 152.065 91.9237 152.065V154.065C95.0903 154.065 97.6487 152.911 99.469 150.563L97.8884 149.337ZM91.9237 152.065C89.2773 152.065 87.322 151.14 85.924 149.337L84.3434 150.563C86.1654 152.913 88.7368 154.065 91.9237 154.065V152.065ZM85.9176 149.329C84.662 147.744 83.9987 145.69 83.9987 143.09H81.9987C81.9987 146.043 82.7588 148.563 84.3499 150.571L85.9176 149.329ZM83.9987 143.09C83.9987 140.49 84.662 138.436 85.9176 136.851L84.3499 135.609C82.7588 137.617 81.9987 140.137 81.9987 143.09H83.9987ZM85.924 136.843C87.322 135.04 89.2773 134.115 91.9237 134.115V132.115C88.7368 132.115 86.1654 133.267 84.3434 135.617L85.924 136.843ZM133.879 151.875L134.363 152.75L134.925 152.439L134.876 151.798L133.879 151.875ZM118.199 149.32L117.475 150.01L117.48 150.015L117.485 150.02L118.199 149.32ZM118.269 129.86L117.552 129.163L117.552 129.163L118.269 129.86ZM133.879 127.095L134.876 127.173L134.928 126.507L134.333 126.204L133.879 127.095ZM133.599 130.665L133.23 131.594L134.49 132.095L134.596 130.743L133.599 130.665ZM120.999 132.45L121.734 133.128L121.734 133.128L120.999 132.45ZM120.929 146.695L121.664 146.017L121.655 146.008L120.929 146.695ZM133.599 148.235L134.596 148.158L134.479 146.634L133.129 147.352L133.599 148.235ZM133.395 151C132.315 151.598 130.484 151.96 127.754 151.96V153.96C130.577 153.96 132.829 153.599 134.363 152.75L133.395 151ZM127.754 151.96C123.982 151.96 121.072 150.821 118.913 148.62L117.485 150.02C120.086 152.672 123.546 153.96 127.754 153.96V151.96ZM118.923 148.63C116.775 146.376 115.664 143.385 115.664 139.555H113.664C113.664 143.799 114.909 147.317 117.475 150.01L118.923 148.63ZM115.664 139.555C115.664 135.781 116.793 132.814 118.986 130.557L117.552 129.163C114.938 131.852 113.664 135.349 113.664 139.555H115.664ZM118.986 130.557C121.175 128.304 124.064 127.15 127.754 127.15V125.15C123.604 125.15 120.17 126.469 117.552 129.163L118.986 130.557ZM127.754 127.15C130.575 127.15 132.412 127.47 133.425 127.986L134.333 126.204C132.872 125.46 130.626 125.15 127.754 125.15V127.15ZM132.882 127.017L132.602 130.587L134.596 130.743L134.876 127.173L132.882 127.017ZM133.968 129.736C132.23 129.046 130.148 128.72 127.754 128.72V130.72C129.979 130.72 131.794 131.024 133.23 131.594L133.968 129.736ZM127.754 128.72C124.694 128.72 122.161 129.717 120.264 131.772L121.734 133.128C123.197 131.543 125.167 130.72 127.754 130.72V128.72ZM120.264 131.772C118.384 133.809 117.479 136.434 117.479 139.555H119.479C119.479 136.842 120.254 134.731 121.734 133.128L120.264 131.772ZM117.479 139.555C117.479 142.771 118.349 145.423 120.202 147.382L121.655 146.008C120.242 144.514 119.479 142.406 119.479 139.555H117.479ZM120.194 147.373C122.075 149.413 124.637 150.39 127.754 150.39V148.39C125.084 148.39 123.097 147.571 121.664 146.017L120.194 147.373ZM127.754 150.39C130.293 150.39 132.423 149.993 134.069 149.118L133.129 147.352C131.881 148.017 130.115 148.39 127.754 148.39V150.39ZM132.602 148.312L132.882 151.952L134.876 151.798L134.596 148.158L132.602 148.312ZM155.984 152.505V153.505H156.984V152.505H155.984ZM152.239 152.505H151.239V153.505H152.239V152.505ZM151.644 137.63L152.527 137.161L152.514 137.136L152.499 137.112L151.644 137.63ZM145.449 138.12L144.612 137.573L144.604 137.584L144.598 137.595L145.449 138.12ZM144.434 152.505V153.505H145.434V152.505H144.434ZM140.689 152.505H139.689V153.505H140.689V152.505ZM140.689 124.645V123.645H139.689V124.645H140.689ZM144.434 124.645H145.434V123.645H144.434V124.645ZM144.434 135.18H143.434V138.759L145.289 135.698L144.434 135.18ZM146.464 133.43L146.872 134.343L146.887 134.336L146.901 134.329L146.464 133.43ZM154.514 135.04L153.701 135.624L153.708 135.633L154.514 135.04ZM155.984 151.505H152.239V153.505H155.984V151.505ZM153.239 152.505V141.305H151.239V152.505H153.239ZM153.239 141.305C153.239 139.572 153.045 138.136 152.527 137.161L150.76 138.099C151.036 138.617 151.239 139.631 151.239 141.305H153.239ZM152.499 137.112C151.729 135.841 150.41 135.3 148.844 135.3V137.3C149.937 137.3 150.484 137.646 150.788 138.148L152.499 137.112ZM148.844 135.3C147.042 135.3 145.593 136.072 144.612 137.573L146.286 138.667C146.891 137.741 147.705 137.3 148.844 137.3V135.3ZM144.598 137.595C143.799 138.889 143.434 140.46 143.434 142.25H145.434C145.434 140.727 145.744 139.545 146.3 138.645L144.598 137.595ZM143.434 142.25V152.505H145.434V142.25H143.434ZM144.434 151.505H140.689V153.505H144.434V151.505ZM141.689 152.505V124.645H139.689V152.505H141.689ZM140.689 125.645H144.434V123.645H140.689V125.645ZM143.434 124.645V135.18H145.434V124.645H143.434ZM145.289 135.698C145.642 135.116 146.155 134.663 146.872 134.343L146.055 132.517C144.998 132.99 144.159 133.704 143.578 134.662L145.289 135.698ZM146.901 134.329C147.625 133.977 148.397 133.8 149.229 133.8V131.8C148.1 131.8 147.029 132.043 146.026 132.531L146.901 134.329ZM149.229 133.8C151.474 133.8 152.875 134.474 153.702 135.624L155.326 134.456C154.005 132.619 151.884 131.8 149.229 131.8V133.8ZM153.708 135.633C154.502 136.71 154.984 138.496 154.984 141.165H156.984C156.984 138.327 156.485 136.03 155.319 134.447L153.708 135.633ZM154.984 141.165V152.505H156.984V141.165H154.984ZM171.959 152.68H170.959V153.68H171.959V152.68ZM171.959 150.825H172.959V147.874L171.165 150.217L171.959 150.825ZM161.844 151.105L161.074 151.743L161.08 151.75L161.085 151.756L161.844 151.105ZM171.679 140.465V141.465H172.679V140.465H171.679ZM162.824 137.91H161.824V139.583L163.298 138.791L162.824 137.91ZM162.824 134.48L162.368 133.59L161.824 133.869V134.48H162.824ZM173.604 134.69L174.326 133.998L174.319 133.991L173.604 134.69ZM175.459 152.68V153.68H176.634L176.446 152.52L175.459 152.68ZM171.679 143.72H172.679V142.72H171.679V143.72ZM166.744 144.21L167.056 145.16L167.06 145.159L166.744 144.21ZM172.959 152.68V150.825H170.959V152.68H172.959ZM171.165 150.217C170.24 151.426 168.91 152.065 167.024 152.065V154.065C169.432 154.065 171.392 153.211 172.753 151.433L171.165 150.217ZM167.024 152.065C164.873 152.065 163.472 151.468 162.603 150.454L161.085 151.756C162.456 153.355 164.508 154.065 167.024 154.065V152.065ZM162.614 150.467C161.986 149.709 161.654 148.775 161.654 147.605H159.654C159.654 149.188 160.116 150.588 161.074 151.743L162.614 150.467ZM161.654 147.605C161.654 145.508 162.403 144.055 163.841 143.077C165.349 142.052 167.736 141.465 171.154 141.465V139.465C167.572 139.465 164.709 140.068 162.717 141.423C160.655 142.825 159.654 144.942 159.654 147.605H161.654ZM171.154 141.465H171.679V139.465H171.154V141.465ZM172.679 140.465V139.835H170.679V140.465H172.679ZM172.679 139.835C172.679 138.555 172.384 137.409 171.616 136.582C170.835 135.741 169.73 135.405 168.494 135.405V137.405C169.382 137.405 169.869 137.641 170.15 137.943C170.444 138.259 170.679 138.828 170.679 139.835H172.679ZM168.494 135.405C166.398 135.405 164.347 135.956 162.351 137.029L163.298 138.791C165.035 137.857 166.763 137.405 168.494 137.405V135.405ZM163.824 137.91V134.48H161.824V137.91H163.824ZM163.281 135.37C164.902 134.538 166.704 134.115 168.704 134.115V132.115C166.411 132.115 164.293 132.602 162.368 133.59L163.281 135.37ZM168.704 134.115C170.814 134.115 172.13 134.612 172.889 135.389L174.319 133.991C173.025 132.668 171.074 132.115 168.704 132.115V134.115ZM172.882 135.382C173.727 136.263 174.249 137.734 174.249 140.01H176.249C176.249 137.479 175.675 135.404 174.326 133.998L172.882 135.382ZM174.249 140.01V148.165H176.249V140.01H174.249ZM174.249 148.165C174.249 150.31 174.318 151.888 174.472 152.84L176.446 152.52C176.321 151.745 176.249 150.313 176.249 148.165H174.249ZM175.459 151.68H171.959V153.68H175.459V151.68ZM171.679 142.72H170.944V144.72H171.679V142.72ZM170.944 142.72C169.085 142.72 167.559 142.884 166.428 143.261L167.06 145.159C167.889 144.882 169.163 144.72 170.944 144.72V142.72ZM166.432 143.26C165.514 143.561 164.737 144.04 164.193 144.746C163.644 145.459 163.399 146.318 163.399 147.255H165.399C165.399 146.675 165.545 146.268 165.778 145.966C166.016 145.658 166.411 145.372 167.056 145.16L166.432 143.26ZM163.399 147.255C163.399 148.289 163.704 149.236 164.47 149.9C165.209 150.542 166.214 150.775 167.304 150.775V148.775C166.458 148.775 166.01 148.588 165.781 148.39C165.579 148.214 165.399 147.901 165.399 147.255H163.399ZM167.304 150.775C168.974 150.775 170.389 150.258 171.358 149.08C172.296 147.94 172.679 146.34 172.679 144.455H170.679C170.679 146.117 170.334 147.177 169.813 147.81C169.323 148.405 168.551 148.775 167.304 148.775V150.775ZM172.679 144.455V143.72H170.679V144.455H172.679ZM206.606 152.505V153.505H207.606V152.505H206.606ZM202.966 152.505H201.966V153.505H202.966V152.505ZM197.016 137.805L197.79 138.438L197.796 138.431L197.801 138.425L197.016 137.805ZM195.756 152.505V153.505H196.756V152.505H195.756ZM192.081 152.505H191.081V153.505H192.081V152.505ZM186.166 137.77L186.949 138.393L186.957 138.383L186.964 138.373L186.166 137.77ZM184.941 152.505V153.505H185.941V152.505H184.941ZM181.231 152.505H180.231V153.505H181.231V152.505ZM181.196 135.6L180.197 135.629L180.197 135.629L181.196 135.6ZM181.091 133.605V132.605H180.001L180.095 133.692L181.091 133.605ZM184.731 133.605H185.731V132.605H184.731V133.605ZM184.731 135.32H183.731V138.36L185.536 135.914L184.731 135.32ZM192.536 134.025L193.063 133.175L193.052 133.168L193.042 133.162L192.536 134.025ZM194.601 136.3L193.685 136.7L194.44 138.433L195.448 136.833L194.601 136.3ZM205.066 134.97L204.331 135.648L204.336 135.653L205.066 134.97ZM206.606 151.505H202.966V153.505H206.606V151.505ZM203.966 152.505V140.185H201.966V152.505H203.966ZM203.966 140.185C203.966 138.822 203.667 137.613 202.892 136.739C202.097 135.843 200.96 135.475 199.676 135.475V137.475C200.586 137.475 201.094 137.726 201.396 138.066C201.718 138.429 201.966 139.075 201.966 140.185H203.966ZM199.676 135.475C198.279 135.475 197.11 136.073 196.232 137.185L197.801 138.425C198.323 137.764 198.927 137.475 199.676 137.475V135.475ZM196.242 137.172C195.207 138.438 194.756 140.14 194.756 142.145H196.756C196.756 140.417 197.146 139.226 197.79 138.438L196.242 137.172ZM194.756 142.145V152.505H196.756V142.145H194.756ZM195.756 151.505H192.081V153.505H195.756V151.505ZM193.081 152.505V140.185H191.081V152.505H193.081ZM193.081 140.185C193.081 138.822 192.782 137.613 192.007 136.739C191.212 135.843 190.075 135.475 188.791 135.475V137.475C189.701 137.475 190.209 137.726 190.511 138.066C190.833 138.429 191.081 139.075 191.081 140.185H193.081ZM188.791 135.475C187.386 135.475 186.214 136.05 185.369 137.167L186.964 138.373C187.425 137.764 188.003 137.475 188.791 137.475V135.475ZM185.384 137.147C184.376 138.414 183.941 140.126 183.941 142.145H185.941C185.941 140.384 186.323 139.179 186.949 138.393L185.384 137.147ZM183.941 142.145V152.505H185.941V142.145H183.941ZM184.941 151.505H181.231V153.505H184.941V151.505ZM182.231 152.505V138.4H180.231V152.505H182.231ZM182.231 138.4C182.231 137.32 182.22 136.376 182.196 135.571L180.197 135.629C180.22 136.41 180.231 137.333 180.231 138.4H182.231ZM182.196 135.571C182.172 134.766 182.137 134.081 182.088 133.518L180.095 133.692C180.14 134.203 180.174 134.847 180.197 135.629L182.196 135.571ZM181.091 134.605H184.731V132.605H181.091V134.605ZM183.731 133.605V135.32H185.731V133.605H183.731ZM185.536 135.914C186.348 134.813 187.65 134.185 189.666 134.185V132.185C187.203 132.185 185.215 132.98 183.927 134.726L185.536 135.914ZM189.666 134.185C190.419 134.185 191.203 134.403 192.031 134.888L193.042 133.162C191.956 132.527 190.827 132.185 189.666 132.185V134.185ZM192.01 134.875C192.846 135.393 193.382 136.005 193.685 136.7L195.518 135.9C195.028 134.775 194.187 133.871 193.063 133.175L192.01 134.875ZM195.448 136.833C196.559 135.066 198.177 134.185 200.446 134.185V132.185C197.536 132.185 195.257 133.381 193.755 135.767L195.448 136.833ZM200.446 134.185C202.218 134.185 203.465 134.708 204.331 135.648L205.802 134.292C204.474 132.852 202.641 132.185 200.446 132.185V134.185ZM204.336 135.653C205.146 136.518 205.606 137.753 205.606 139.485H207.606C207.606 137.39 207.04 135.615 205.796 134.287L204.336 135.653ZM205.606 139.485V152.505H207.606V139.485H205.606ZM217.359 138.225L216.488 137.733L216.481 137.745L217.359 138.225ZM217.394 147.43L216.519 147.916L216.52 147.917L217.394 147.43ZM216.344 124.645H217.344V123.645H216.344V124.645ZM216.344 134.935H215.344V137.434L217.067 135.625L216.344 134.935ZM227.229 135.67L226.402 136.234L226.41 136.245L227.229 135.67ZM227.089 150.125L227.883 150.733L227.89 150.723L227.897 150.713L227.089 150.125ZM216.344 150.895L217.126 150.272L215.344 148.035V150.895H216.344ZM216.344 152.505V153.505H217.344V152.505H216.344ZM212.809 152.505H211.809V153.505H212.809V152.505ZM212.809 124.645V123.645H211.809V124.645H212.809ZM220.789 135.055C218.904 135.055 217.454 136.022 216.488 137.733L218.229 138.717C218.897 137.535 219.733 137.055 220.789 137.055V135.055ZM216.481 137.745C215.703 139.167 215.344 140.884 215.344 142.845H217.344C217.344 141.119 217.661 139.756 218.236 138.705L216.481 137.745ZM215.344 142.845C215.344 144.77 215.719 146.475 216.519 147.916L218.268 146.944C217.668 145.865 217.344 144.513 217.344 142.845H215.344ZM216.52 147.917C217.467 149.615 218.91 150.565 220.789 150.565V148.565C219.727 148.565 218.907 148.092 218.267 146.943L216.52 147.917ZM220.789 150.565C222.577 150.565 224.038 149.884 225.002 148.464C225.919 147.114 226.304 145.214 226.304 142.915H224.304C224.304 145.05 223.935 146.475 223.347 147.341C222.806 148.138 222.01 148.565 220.789 148.565V150.565ZM226.304 142.915C226.304 140.55 225.92 138.603 225.01 137.22C224.052 135.764 222.59 135.055 220.789 135.055V137.055C221.997 137.055 222.793 137.489 223.339 138.32C223.934 139.224 224.304 140.706 224.304 142.915H226.304ZM215.344 124.645V134.935H217.344V124.645H215.344ZM217.067 135.625C218.333 134.298 219.692 133.695 221.174 133.695V131.695C219.062 131.695 217.201 132.586 215.62 134.245L217.067 135.625ZM221.174 133.695C223.572 133.695 225.26 134.559 226.402 136.234L228.055 135.106C226.491 132.814 224.142 131.695 221.174 131.695V133.695ZM226.41 136.245C227.462 137.741 228.049 139.925 228.049 142.915H230.049C230.049 139.698 229.422 137.052 228.047 135.095L226.41 136.245ZM228.049 142.915C228.049 145.787 227.425 147.962 226.28 149.537L227.897 150.713C229.366 148.694 230.049 146.063 230.049 142.915H228.049ZM226.294 149.517C225.048 151.146 223.377 151.96 221.174 151.96V153.96C223.964 153.96 226.236 152.884 227.883 150.733L226.294 149.517ZM221.174 151.96C219.285 151.96 217.993 151.361 217.126 150.272L215.561 151.518C216.887 153.183 218.815 153.96 221.174 153.96V151.96ZM215.344 150.895V152.505H217.344V150.895H215.344ZM216.344 151.505H212.809V153.505H216.344V151.505ZM213.809 152.505V124.645H211.809V152.505H213.809ZM212.809 125.645H216.344V123.645H212.809V125.645ZM248.454 144.42V145.42H249.454V144.42H248.454ZM236.659 144.42V143.42H235.617L235.66 144.462L236.659 144.42ZM238.024 148.34L238.782 147.688L238.775 147.679L238.767 147.671L238.024 148.34ZM247.159 148.48H248.159V146.766L246.667 147.609L247.159 148.48ZM247.159 152.015L247.51 152.951L248.159 152.708V152.015H247.159ZM234.769 150.195L233.97 150.797L233.976 150.804L234.769 150.195ZM234.979 135.88L235.771 136.491L235.771 136.491L234.979 135.88ZM246.739 135.985L245.918 136.556L245.92 136.558L246.739 135.985ZM244.639 141.095V142.095H245.639V141.095H244.639ZM243.624 137.805L242.824 138.405L242.829 138.412L243.624 137.805ZM237.884 137.84L238.645 138.489L238.645 138.489L237.884 137.84ZM236.659 141.095H235.659V142.095H236.659V141.095ZM248.454 143.42H236.659V145.42H248.454V143.42ZM235.66 144.462C235.736 146.295 236.239 147.852 237.281 149.009L238.767 147.671C238.129 146.962 237.722 145.905 237.658 144.378L235.66 144.462ZM237.266 148.992C238.348 150.25 239.833 150.845 241.594 150.845V148.845C240.321 148.845 239.427 148.437 238.782 147.688L237.266 148.992ZM241.594 150.845C243.843 150.845 245.872 150.356 247.651 149.351L246.667 147.609C245.227 148.424 243.545 148.845 241.594 148.845V150.845ZM246.159 148.48V152.015H248.159V148.48H246.159ZM246.808 151.079C245.049 151.738 243.278 152.065 241.489 152.065V154.065C243.527 154.065 245.536 153.692 247.51 152.951L246.808 151.079ZM241.489 152.065C238.705 152.065 236.796 151.192 235.562 149.586L233.976 150.804C235.682 153.024 238.253 154.065 241.489 154.065V152.065ZM235.568 149.593C234.461 148.124 233.844 145.986 233.844 143.055H231.844C231.844 146.238 232.511 148.859 233.97 150.797L235.568 149.593ZM233.844 143.055C233.844 140.277 234.515 138.118 235.771 136.491L234.188 135.269C232.597 137.329 231.844 139.953 231.844 143.055H233.844ZM235.771 136.491C236.998 134.902 238.614 134.115 240.719 134.115V132.115C238.018 132.115 235.807 133.171 234.188 135.269L235.771 136.491ZM240.719 134.115C243.132 134.115 244.805 134.955 245.918 136.556L247.56 135.414C246.013 133.188 243.673 132.115 240.719 132.115V134.115ZM245.92 136.558C246.911 137.974 247.454 139.912 247.454 142.46H249.454C249.454 139.641 248.854 137.262 247.558 135.412L245.92 136.558ZM247.454 142.46V144.42H249.454V142.46H247.454ZM245.639 141.095C245.639 139.608 245.251 138.288 244.419 137.198L242.829 138.412C243.351 139.095 243.639 139.969 243.639 141.095H245.639ZM244.424 137.205C243.54 136.026 242.325 135.405 240.859 135.405V137.405C241.68 137.405 242.308 137.717 242.824 138.405L244.424 137.205ZM240.859 135.405C239.375 135.405 238.113 136.031 237.124 137.191L238.645 138.489C239.288 137.735 240.01 137.405 240.859 137.405V135.405ZM237.124 137.191C236.159 138.321 235.659 139.634 235.659 141.095H237.659C237.659 140.129 237.976 139.272 238.645 138.489L237.124 137.191ZM236.659 142.095H244.639V140.095H236.659V142.095ZM262.101 137L261.949 137.988L263.101 138.166V137H262.101ZM261.261 136.895L261.082 137.879L261.126 137.887L261.171 137.891L261.261 136.895ZM257.481 138.82L258.369 139.281L258.374 139.271L258.379 139.261L257.481 138.82ZM256.571 152.645V153.645H257.571V152.645H256.571ZM252.826 152.645H251.826V153.645H252.826V152.645ZM252.756 135.74L251.757 135.769L251.757 135.785L251.758 135.8L252.756 135.74ZM252.651 133.535V132.535H251.58L251.654 133.604L252.651 133.535ZM256.431 133.535H257.431V132.535H256.431V133.535ZM256.431 135.88H255.431V139.585L257.296 136.383L256.431 135.88ZM262.101 133.325H263.101V132.552L262.354 132.357L262.101 133.325ZM262.253 136.012C261.933 135.962 261.633 135.925 261.352 135.899L261.171 137.891C261.403 137.912 261.663 137.944 261.949 137.988L262.253 136.012ZM261.44 135.911C261.126 135.854 260.809 135.825 260.491 135.825V137.825C260.687 137.825 260.884 137.843 261.082 137.879L261.44 135.911ZM260.491 135.825C259.643 135.825 258.857 136.036 258.171 136.49C257.491 136.941 256.971 137.591 256.584 138.379L258.379 139.261C258.645 138.719 258.953 138.372 259.276 138.157C259.594 137.947 259.986 137.825 260.491 137.825V135.825ZM256.594 138.359C255.894 139.705 255.571 141.321 255.571 143.16H257.571C257.571 141.545 257.856 140.268 258.369 139.281L256.594 138.359ZM255.571 143.16V152.645H257.571V143.16H255.571ZM256.571 151.645H252.826V153.645H256.571V151.645ZM253.826 152.645V138.225H251.826V152.645H253.826ZM253.826 138.225C253.826 137.321 253.803 136.472 253.755 135.68L251.758 135.8C251.803 136.548 251.826 137.356 251.826 138.225H253.826ZM253.756 135.711C253.732 134.906 253.697 134.158 253.649 133.466L251.654 133.604C251.699 134.265 251.734 134.987 251.757 135.769L253.756 135.711ZM252.651 134.535H256.431V132.535H252.651V134.535ZM255.431 133.535V135.88H257.431V133.535H255.431ZM257.296 136.383C258.249 134.746 259.33 134.115 260.526 134.115V132.115C258.41 132.115 256.76 133.328 255.567 135.377L257.296 136.383ZM260.526 134.115C260.948 134.115 261.388 134.172 261.849 134.293L262.354 132.357C261.741 132.198 261.131 132.115 260.526 132.115V134.115ZM261.101 133.325V137H263.101V133.325H261.101Z" fill="#AE4CD8" mask="url(#path-5-outside-1_1007_10)"/>
</svg>
