<svg width="1237" height="783" viewBox="0 0 1237 783" fill="none" xmlns="http://www.w3.org/2000/svg">
<path d="M0.287109 783V0.96875H262.934C305.544 0.96875 344.216 5.26562 378.949 13.8594C414.04 22.4531 443.939 35.5228 468.646 53.0684C493.354 70.6139 512.331 92.8145 525.58 119.67C539.187 146.525 545.99 178.215 545.99 214.738C545.632 238.371 541.335 260.751 533.1 281.877C525.222 302.645 513.406 320.907 497.65 336.662C489.057 345.256 479.21 353.133 468.109 360.295C457.367 367.456 445.372 373.544 432.123 378.557V379.094C457.904 386.255 478.314 395.386 493.354 406.486C508.751 417.587 521.641 430.477 532.025 445.158C542.768 460.913 550.645 478.101 555.658 496.721C561.029 514.982 563.715 533.96 563.715 553.654C563.715 591.252 557.27 624.374 544.379 653.02C531.488 681.665 513.048 705.656 489.057 724.992C465.066 744.328 435.883 758.83 401.508 768.498C367.133 778.166 328.461 783 285.492 783H0.287109ZM151.752 438.176V661.076H286.029C305.723 661.076 323.269 658.57 338.666 653.557C354.421 648.544 367.491 641.74 377.875 633.146C389.333 623.479 397.927 611.841 403.656 598.234C409.743 584.628 412.787 569.41 412.787 552.58C412.787 535.035 410.46 519.279 405.805 505.314C401.508 491.35 394.525 479.533 384.857 469.865C375.189 459.839 362.657 452.141 347.26 446.77C331.863 441.398 313.601 438.534 292.475 438.176H151.752ZM151.752 329.143H264.008C286.924 328.785 307.156 326.099 324.701 321.086C342.247 315.715 356.391 307.837 367.133 297.453C376.085 289.217 382.888 279.191 387.543 267.375C392.556 255.559 395.062 242.131 395.062 227.092C395.062 211.337 392.914 197.551 388.617 185.734C384.678 173.918 378.591 164.071 370.355 156.193C359.613 145.093 345.111 137.036 326.85 132.023C308.946 127.01 287.82 124.325 263.471 123.967H151.752V329.143ZM927.338 490.812H812.934V783H662.006V0.96875H924.115C967.442 0.96875 1006.65 6.16081 1041.74 16.5449C1076.83 26.571 1106.91 41.431 1131.98 61.125C1156.68 80.819 1175.66 105.347 1188.91 134.709C1202.52 164.071 1209.32 198.088 1209.32 236.76C1209.32 264.689 1205.92 289.934 1199.12 312.492C1192.67 334.693 1183.36 354.566 1171.19 372.111C1158.65 390.015 1143.61 405.591 1126.07 418.84C1108.88 432.089 1089.54 443.547 1068.06 453.215L1236.18 776.018V783H1074.51L927.338 490.812ZM812.934 368.352H924.652C947.927 368.352 968.337 365.129 985.883 358.684C1003.79 351.88 1018.29 342.212 1029.39 329.68C1038.7 319.654 1045.68 307.658 1050.34 293.693C1055.35 279.729 1057.86 264.152 1057.86 246.965C1057.86 226.197 1054.63 207.935 1048.19 192.18C1042.1 176.066 1032.79 162.818 1020.26 152.434C1009.16 143.124 995.551 135.962 979.438 130.949C963.324 125.936 944.883 123.43 924.115 123.43H812.934V368.352Z" fill="#F44336"/>
</svg>
